<?xml version="1.0" encoding="UTF-8" standalone="no"?>
<svg
   xmlns:dc="http://purl.org/dc/elements/1.1/"
   xmlns:cc="http://creativecommons.org/ns#"
   xmlns:rdf="http://www.w3.org/1999/02/22-rdf-syntax-ns#"
   xmlns:svg="http://www.w3.org/2000/svg"
   xmlns="http://www.w3.org/2000/svg"
   viewBox="0 0 588 426.66666"
   height="426.66666"
   width="588"
   xml:space="preserve"
   id="svg2"
   version="1.1"><metadata
     id="metadata8"><rdf:RDF><cc:Work
         rdf:about=""><dc:format>image/svg+xml</dc:format><dc:type
           rdf:resource="http://purl.org/dc/dcmitype/StillImage" /></cc:Work></rdf:RDF></metadata><defs
     id="defs6"><clipPath
       id="clipPath20"
       clipPathUnits="userSpaceOnUse"><path
         id="path18"
         d="M 0,320 H 441 V 0 H 0 Z" /></clipPath><clipPath
       id="clipPath72"
       clipPathUnits="userSpaceOnUse"><path
         id="path70"
         d="M 0,320 H 441 V 0 H 0 Z" /></clipPath></defs><g
     transform="matrix(1.3333333,0,0,-1.3333333,0,426.66667)"
     id="g10"><path
       id="path12"
       style="fill:#231f20;fill-opacity:1;fill-rule:nonzero;stroke:none"
       d="m 53.454,143.553 h 334.092 v -4.786 H 53.454 Z" /><g
       id="g14"><g
         clip-path="url(#clipPath20)"
         id="g16"><g
           transform="translate(341.3809,152.1841)"
           id="g22"><path
             id="path24"
             style="fill:#231f20;fill-opacity:1;fill-rule:nonzero;stroke:none"
             d="m 0,0 h 4.808 l -0.04,45.09 c 11.619,-0.594 18.584,-7.889 20.419,-12.172 0.227,-0.514 0.504,-2.258 0.504,-3.561 V 0 h 4.776 v 29.357 c 0,1.282 -0.215,4.192 -1.025,6.029 -1.551,3.511 -7.978,14.963 -26.388,14.963 l -3.054,0 z" /></g><g
           transform="translate(312.5698,183.5801)"
           id="g26"><path
             id="path28"
             style="fill:#231f20;fill-opacity:1;fill-rule:nonzero;stroke:none"
             d="M 0,0 C 0.099,0.679 0.227,1.261 0.342,1.522 2.178,5.805 9.143,13.1 20.762,13.694 L 20.742,-8.285 Z M 22.475,18.953 C 4.065,18.953 -2.362,7.501 -3.913,3.99 -4.723,2.153 -4.937,-0.757 -4.937,-2.039 v -29.357 h 4.775 v 26.313 l 20.899,-8.357 -0.016,-17.956 h 4.808 v 50.349 z" /></g><g
           transform="translate(307.1284,185.7388)"
           id="g30"><path
             id="path32"
             style="fill:#231f20;fill-opacity:1;fill-rule:nonzero;stroke:none"
             d="m 0,0 -34.535,14.033 -1.817,-4.406 12.991,-5.276 v -37.906 h 4.785 V 2.414 l 18.434,-7.511 z" /></g><path
           id="path34"
           style="fill:#231f20;fill-opacity:1;fill-rule:nonzero;stroke:none"
           d="m 259.155,152.114 h -4.786 v 60.649 h 4.786 z" /><path
           id="path36"
           style="fill:#231f20;fill-opacity:1;fill-rule:nonzero;stroke:none"
           d="M 267.886,152.114 H 263.1 v 38.275 h 4.786 z" /><g
           transform="translate(233.936,186.4893)"
           id="g38"><path
             id="path40"
             style="fill:#231f20;fill-opacity:1;fill-rule:nonzero;stroke:none"
             d="m 0,0 c -11.467,0 -11.467,-7.648 -11.467,-15.434 0,-7.786 0,-14.121 11.467,-14.121 11.467,0 11.467,7.648 11.467,15.434 C 11.467,-6.335 11.467,0 0,0 m 0,-34.576 c -16.489,0 -16.489,9.9 -16.489,20.455 0,10.555 0,19.142 16.489,19.142 16.489,0 16.489,-8.587 16.489,-19.142 0,-10.555 0,-20.455 -16.489,-20.455" /></g><g
           transform="translate(163.5518,186.4893)"
           id="g42"><path
             id="path44"
             style="fill:#231f20;fill-opacity:1;fill-rule:nonzero;stroke:none"
             d="m 0,0 c -11.467,0 -11.467,-7.648 -11.467,-15.434 0,-7.786 0,-14.121 11.467,-14.121 11.467,0 11.467,7.648 11.467,15.434 C 11.467,-6.335 11.467,0 0,0 m 0,-34.576 c -16.489,0 -16.489,9.9 -16.489,20.455 0,10.555 0,19.142 16.489,19.142 16.489,0 16.489,-8.587 16.489,-19.142 0,-10.555 0,-20.455 -16.489,-20.455" /></g><g
           transform="translate(201.5483,181.2988)"
           id="g46"><path
             id="path48"
             style="fill:#000000;fill-opacity:1;fill-rule:nonzero;stroke:none"
             d="m 0,0 -13.267,0.069 v 26.94 C -8.822,27.021 -2.188,27.06 0.454,27.06 2.444,26.849 10.599,28.131 10.599,13.814 10.599,-0.526 1.468,0.161 0,0 m 1.146,31.823 c -2.963,0 -9.226,-0.022 -14.413,-0.022 h -4.806 V 27.347 0.094 -4.712 -28.763 l -0.058,-0.352 h 4.805 l 0.059,24.378 13.484,-0.07 0.113,0.01 c 7.077,0.632 15.075,3.241 15.075,18.611 0,15.205 -7.256,17.349 -14.259,18.009" /></g><g
           transform="translate(127.1909,186.4893)"
           id="g50"><path
             id="path52"
             style="fill:#231f20;fill-opacity:1;fill-rule:nonzero;stroke:none"
             d="m 0,0 c 7.555,0 10.126,-2.756 11.005,-6.86 l -22.472,-9.116 v 0.542 C -11.467,-7.648 -11.467,0 0,0 M 11.38,-18.616 C 11.027,-24.605 9.224,-29.555 0,-29.555 c -8.524,0 -10.71,3.502 -11.272,8.497 l 27.406,11.095 0.3,0.122 v 0.252 C 16.126,-1.215 14.049,5.021 0,5.021 c -16.489,0 -16.489,-8.587 -16.489,-19.142 0,-10.555 0,-20.455 16.489,-20.455 15.257,0 16.396,8.477 16.481,18.105 z" /></g><g
           transform="translate(267.9077,196.5303)"
           id="g54"><path
             id="path56"
             style="fill:#231f20;fill-opacity:1;fill-rule:nonzero;stroke:none"
             d="M 0,0 -4.434,1.801 -2.633,6.235 1.801,4.434 Z" /></g><g
           transform="translate(102.626,213.1567)"
           id="g58"><path
             id="path60"
             style="fill:#231f20;fill-opacity:1;fill-rule:nonzero;stroke:none"
             d="M 0,0 V -52.748 L -27.687,0 -33.474,0.002 v -4.18 -56.755 h 4.787 v -0.077 53.064 l 27.561,-52.989 5.912,-0.017 0,60.952 z" /></g></g></g><text
       id="text64"
       style="font-variant:normal;font-weight:bold;font-stretch:normal;font-size:26.16270065px;font-family:Alef;-inkscape-font-specification:Alef-Bold;writing-mode:lr-tb;fill:#000000;fill-opacity:1;fill-rule:nonzero;stroke:none"
       transform="matrix(1,0,0,-1,110.9087,115.5527)"><tspan
         id="tspan62"
         y="0"
         x="0 16.927267 26.568222 38.158298 55.268703 64.90966 79.168327 88.743881 103.86592 120.47923 132.06931 139.73499 155.39075 165.03169 174.67265 188.81882 204.16324 213.8042">תינטילופאנ היירציפ</tspan></text>
<g
       id="g66"><g
         clip-path="url(#clipPath72)"
         id="g68"><path
           id="path74"
           style="fill:none;stroke:#0000ff;stroke-width:1;stroke-linecap:butt;stroke-linejoin:miter;stroke-miterlimit:10;stroke-dasharray:none;stroke-opacity:1"
           d="m -19.5,338.333 h 470 V -12.334 h -470 z" /></g></g></g></svg>